<?xml version="1.0" encoding="UTF-8" standalone="no"?>
<!DOCTYPE svg PUBLIC "-//W3C//DTD SVG 1.1//EN"
 "http://www.w3.org/Graphics/SVG/1.1/DTD/svg11.dtd">
<!-- Generated by graphviz version 2.42.4 (0)
 -->
<!-- Title: deps Pages: 1 -->
<svg width="961pt" height="807pt"
 viewBox="0.00 0.00 961.00 806.92" xmlns="http://www.w3.org/2000/svg" xmlns:xlink="http://www.w3.org/1999/xlink">
<g id="graph0" class="graph" transform="scale(1 1) rotate(0) translate(4 802.92)">
<title>deps</title>
<polygon fill="white" stroke="transparent" points="-4,4 -4,-802.92 957,-802.92 957,4 -4,4"/>
<!-- cmd/chum -->
<g id="node1" class="node">
<title>cmd/chum</title>
<path fill="#fce4ec" stroke="black" d="M95.5,-335.92C95.5,-335.92 29.5,-335.92 29.5,-335.92 23.5,-335.92 17.5,-329.92 17.5,-323.92 17.5,-323.92 17.5,-311.92 17.5,-311.92 17.5,-305.92 23.5,-299.92 29.5,-299.92 29.5,-299.92 95.5,-299.92 95.5,-299.92 101.5,-299.92 107.5,-305.92 107.5,-311.92 107.5,-311.92 107.5,-323.92 107.5,-323.92 107.5,-329.92 101.5,-335.92 95.5,-335.92"/>
<text text-anchor="middle" x="62.5" y="-314.22" font-family="Inter" font-size="14.00">cmd/chum</text>
</g>
<!-- internal/api -->
<g id="node2" class="node">
<title>internal/api</title>
<path fill="#fff3e0" stroke="black" d="M270.5,-335.92C270.5,-335.92 199.5,-335.92 199.5,-335.92 193.5,-335.92 187.5,-329.92 187.5,-323.92 187.5,-323.92 187.5,-311.92 187.5,-311.92 187.5,-305.92 193.5,-299.92 199.5,-299.92 199.5,-299.92 270.5,-299.92 270.5,-299.92 276.5,-299.92 282.5,-305.92 282.5,-311.92 282.5,-311.92 282.5,-323.92 282.5,-323.92 282.5,-329.92 276.5,-335.92 270.5,-335.92"/>
<text text-anchor="middle" x="235" y="-314.22" font-family="Inter" font-size="14.00">internal/api</text>
</g>
<!-- cmd/chum&#45;&gt;internal/api -->
<g id="edge1" class="edge">
<title>cmd/chum&#45;&gt;internal/api</title>
<path fill="none" stroke="#666666" d="M107.85,-317.92C130.03,-317.92 157.04,-317.92 180.37,-317.92"/>
<polygon fill="#666666" stroke="#666666" points="180.49,-320.37 187.49,-317.92 180.49,-315.47 180.49,-320.37"/>
</g>
<!-- internal/config -->
<g id="node3" class="node">
<title>internal/config</title>
<path fill="#fffde7" stroke="black" d="M790,-453.92C790,-453.92 698,-453.92 698,-453.92 692,-453.92 686,-447.92 686,-441.92 686,-441.92 686,-429.92 686,-429.92 686,-423.92 692,-417.92 698,-417.92 698,-417.92 790,-417.92 790,-417.92 796,-417.92 802,-423.92 802,-429.92 802,-429.92 802,-441.92 802,-441.92 802,-447.92 796,-453.92 790,-453.92"/>
<text text-anchor="middle" x="744" y="-432.22" font-family="Inter" font-size="14.00">internal/config</text>
</g>
<!-- cmd/chum&#45;&gt;internal/config -->
<g id="edge2" class="edge">
<title>cmd/chum&#45;&gt;internal/config</title>
<path fill="none" stroke="#666666" d="M89.42,-336.25C156.23,-382.01 341.41,-499.48 517,-525.92 575.45,-534.72 595.2,-548.1 650,-525.92 682.75,-512.67 710.35,-481.75 726.77,-459.86"/>
<polygon fill="#666666" stroke="#666666" points="728.94,-461.05 731.1,-453.95 724.99,-458.15 728.94,-461.05"/>
</g>
<!-- internal/graph -->
<g id="node4" class="node">
<title>internal/graph</title>
<path fill="#e8f5e9" stroke="black" d="M941,-331.92C941,-331.92 850,-331.92 850,-331.92 844,-331.92 838,-325.92 838,-319.92 838,-319.92 838,-307.92 838,-307.92 838,-301.92 844,-295.92 850,-295.92 850,-295.92 941,-295.92 941,-295.92 947,-295.92 953,-301.92 953,-307.92 953,-307.92 953,-319.92 953,-319.92 953,-325.92 947,-331.92 941,-331.92"/>
<text text-anchor="middle" x="895.5" y="-310.22" font-family="Inter" font-size="14.00">internal/graph</text>
</g>
<!-- cmd/chum&#45;&gt;internal/graph -->
<g id="edge3" class="edge">
<title>cmd/chum&#45;&gt;internal/graph</title>
<path fill="none" stroke="#666666" d="M73.8,-335.99C110.75,-398.23 243.5,-599.92 412,-599.92 412,-599.92 412,-599.92 584.5,-599.92 692.63,-599.92 724.9,-566.73 802,-490.92 846.85,-446.83 874.59,-376.35 886.94,-339.02"/>
<polygon fill="#666666" stroke="#666666" points="889.38,-339.43 889.21,-332.01 884.72,-337.92 889.38,-339.43"/>
</g>
<!-- internal/store -->
<g id="node5" class="node">
<title>internal/store</title>
<path fill="#e8f5e9" stroke="black" d="M786,-251.92C786,-251.92 702,-251.92 702,-251.92 696,-251.92 690,-245.92 690,-239.92 690,-239.92 690,-227.92 690,-227.92 690,-221.92 696,-215.92 702,-215.92 702,-215.92 786,-215.92 786,-215.92 792,-215.92 798,-221.92 798,-227.92 798,-227.92 798,-239.92 798,-239.92 798,-245.92 792,-251.92 786,-251.92"/>
<text text-anchor="middle" x="744" y="-230.22" font-family="Inter" font-size="14.00">internal/store</text>
</g>
<!-- cmd/chum&#45;&gt;internal/store -->
<g id="edge4" class="edge">
<title>cmd/chum&#45;&gt;internal/store</title>
<path fill="none" stroke="#666666" d="M72.95,-299.76C103.3,-243.71 204.54,-73.56 345,-11.92 363.47,-3.82 640.03,-7.23 650,-13.92 716.5,-58.58 735.59,-161.1 740.96,-208.74"/>
<polygon fill="#666666" stroke="#666666" points="738.54,-209.19 741.71,-215.9 743.42,-208.68 738.54,-209.19"/>
</g>
<!-- internal/temporal -->
<g id="node6" class="node">
<title>internal/temporal</title>
<path fill="#f3e5f5" stroke="black" d="M469,-251.92C469,-251.92 357,-251.92 357,-251.92 351,-251.92 345,-245.92 345,-239.92 345,-239.92 345,-227.92 345,-227.92 345,-221.92 351,-215.92 357,-215.92 357,-215.92 469,-215.92 469,-215.92 475,-215.92 481,-221.92 481,-227.92 481,-227.92 481,-239.92 481,-239.92 481,-245.92 475,-251.92 469,-251.92"/>
<text text-anchor="middle" x="413" y="-230.22" font-family="Inter" font-size="14.00">internal/temporal</text>
</g>
<!-- cmd/chum&#45;&gt;internal/temporal -->
<g id="edge5" class="edge">
<title>cmd/chum&#45;&gt;internal/temporal</title>
<path fill="none" stroke="#666666" d="M107.55,-305.25C124.25,-300.58 143.46,-295.34 161,-290.92 220.29,-275.99 287.89,-260.74 337.99,-249.77"/>
<polygon fill="#666666" stroke="#666666" points="338.63,-252.14 344.95,-248.26 337.58,-247.36 338.63,-252.14"/>
</g>
<!-- internal/api&#45;&gt;internal/config -->
<g id="edge8" class="edge">
<title>internal/api&#45;&gt;internal/config</title>
<path fill="none" stroke="#666666" d="M251.96,-336.07C272.06,-358.13 308.4,-395.58 345,-420.92 414.94,-469.36 434.11,-485.76 517,-504.92 574.59,-518.24 593.87,-523.47 650,-504.92 677.33,-495.89 703.18,-475.38 720.66,-459.05"/>
<polygon fill="#666666" stroke="#666666" points="722.44,-460.74 725.81,-454.13 719.05,-457.2 722.44,-460.74"/>
</g>
<!-- internal/api&#45;&gt;internal/store -->
<g id="edge9" class="edge">
<title>internal/api&#45;&gt;internal/store</title>
<path fill="none" stroke="#666666" d="M282.64,-313.74C359.7,-306.33 518.18,-288.98 650,-260.92 660.66,-258.66 671.88,-255.81 682.69,-252.81"/>
<polygon fill="#666666" stroke="#666666" points="683.66,-255.09 689.73,-250.83 682.33,-250.37 683.66,-255.09"/>
</g>
<!-- internal/api&#45;&gt;internal/temporal -->
<g id="edge10" class="edge">
<title>internal/api&#45;&gt;internal/temporal</title>
<path fill="none" stroke="#666666" d="M273.76,-299.9C301.27,-286.77 338.64,-268.94 367.59,-255.12"/>
<polygon fill="#666666" stroke="#666666" points="368.74,-257.28 374,-252.06 366.63,-252.86 368.74,-257.28"/>
</g>
<!-- internal/store&#45;&gt;internal/graph -->
<g id="edge24" class="edge">
<title>internal/store&#45;&gt;internal/graph</title>
<path fill="none" stroke="#666666" d="M778.92,-252.08C801.38,-264.1 830.94,-279.91 854.54,-292.54"/>
<polygon fill="#666666" stroke="#666666" points="853.38,-294.7 860.71,-295.84 855.69,-290.38 853.38,-294.7"/>
</g>
<!-- internal/temporal&#45;&gt;internal/config -->
<g id="edge25" class="edge">
<title>internal/temporal&#45;&gt;internal/config</title>
<path fill="none" stroke="#666666" d="M443.49,-252.03C503.99,-289.18 641.98,-373.9 707.37,-414.04"/>
<polygon fill="#666666" stroke="#666666" points="706.21,-416.21 713.46,-417.79 708.78,-412.04 706.21,-416.21"/>
</g>
<!-- internal/temporal&#45;&gt;internal/graph -->
<g id="edge28" class="edge">
<title>internal/temporal&#45;&gt;internal/graph</title>
<path fill="none" stroke="#666666" d="M455.75,-215.74C474.15,-208.68 496.27,-201.44 517,-197.92 641.94,-176.72 688.36,-150.83 802,-206.92 838.13,-224.76 865.95,-263.69 881.26,-289.35"/>
<polygon fill="#666666" stroke="#666666" points="879.25,-290.75 884.89,-295.57 883.48,-288.28 879.25,-290.75"/>
</g>
<!-- internal/temporal&#45;&gt;internal/store -->
<g id="edge29" class="edge">
<title>internal/temporal&#45;&gt;internal/store</title>
<path fill="none" stroke="#666666" d="M472.31,-215.87C486.77,-212.16 502.33,-208.81 517,-206.92 575.63,-199.37 591.48,-198.6 650,-206.92 661.03,-208.49 672.58,-211.06 683.64,-214"/>
<polygon fill="#666666" stroke="#666666" points="683.05,-216.38 690.45,-215.87 684.35,-211.65 683.05,-216.38"/>
</g>
<!-- internal/dispatch -->
<g id="node11" class="node">
<title>internal/dispatch</title>
<path fill="#e0f2f1" stroke="black" d="M638,-251.92C638,-251.92 529,-251.92 529,-251.92 523,-251.92 517,-245.92 517,-239.92 517,-239.92 517,-227.92 517,-227.92 517,-221.92 523,-215.92 529,-215.92 529,-215.92 638,-215.92 638,-215.92 644,-215.92 650,-221.92 650,-227.92 650,-227.92 650,-239.92 650,-239.92 650,-245.92 644,-251.92 638,-251.92"/>
<text text-anchor="middle" x="583.5" y="-230.22" font-family="Inter" font-size="14.00">internal/dispatch</text>
</g>
<!-- internal/temporal&#45;&gt;internal/dispatch -->
<g id="edge26" class="edge">
<title>internal/temporal&#45;&gt;internal/dispatch</title>
<path fill="none" stroke="#666666" d="M481.08,-233.92C490.44,-233.92 500.1,-233.92 509.56,-233.92"/>
<polygon fill="#666666" stroke="#666666" points="509.75,-236.37 516.75,-233.92 509.75,-231.47 509.75,-236.37"/>
</g>
<!-- internal/git -->
<g id="node14" class="node">
<title>internal/git</title>
<path fill="#fce4ec" stroke="black" d="M617.5,-121.92C617.5,-121.92 549.5,-121.92 549.5,-121.92 543.5,-121.92 537.5,-115.92 537.5,-109.92 537.5,-109.92 537.5,-97.92 537.5,-97.92 537.5,-91.92 543.5,-85.92 549.5,-85.92 549.5,-85.92 617.5,-85.92 617.5,-85.92 623.5,-85.92 629.5,-91.92 629.5,-97.92 629.5,-97.92 629.5,-109.92 629.5,-109.92 629.5,-115.92 623.5,-121.92 617.5,-121.92"/>
<text text-anchor="middle" x="583.5" y="-100.22" font-family="Inter" font-size="14.00">internal/git</text>
</g>
<!-- internal/temporal&#45;&gt;internal/git -->
<g id="edge27" class="edge">
<title>internal/temporal&#45;&gt;internal/git</title>
<path fill="none" stroke="#666666" d="M429.73,-215.91C448.83,-194.82 482.75,-159.73 517,-135.92 522.34,-132.21 528.18,-128.7 534.1,-125.45"/>
<polygon fill="#666666" stroke="#666666" points="535.5,-127.49 540.53,-122.05 533.2,-123.16 535.5,-127.49"/>
</g>
<!-- cmd/db&#45;backup -->
<g id="node7" class="node">
<title>cmd/db&#45;backup</title>
<path fill="#fce4ec" stroke="black" d="M113,-690.92C113,-690.92 12,-690.92 12,-690.92 6,-690.92 0,-684.92 0,-678.92 0,-678.92 0,-666.92 0,-666.92 0,-660.92 6,-654.92 12,-654.92 12,-654.92 113,-654.92 113,-654.92 119,-654.92 125,-660.92 125,-666.92 125,-666.92 125,-678.92 125,-678.92 125,-684.92 119,-690.92 113,-690.92"/>
<text text-anchor="middle" x="62.5" y="-669.22" font-family="Inter" font-size="14.00">cmd/db&#45;backup</text>
</g>
<!-- cmd/internal/dbutil -->
<g id="node8" class="node">
<title>cmd/internal/dbutil</title>
<path fill="#fce4ec" stroke="black" d="M297,-663.92C297,-663.92 173,-663.92 173,-663.92 167,-663.92 161,-657.92 161,-651.92 161,-651.92 161,-639.92 161,-639.92 161,-633.92 167,-627.92 173,-627.92 173,-627.92 297,-627.92 297,-627.92 303,-627.92 309,-633.92 309,-639.92 309,-639.92 309,-651.92 309,-651.92 309,-657.92 303,-663.92 297,-663.92"/>
<text text-anchor="middle" x="235" y="-642.22" font-family="Inter" font-size="14.00">cmd/internal/dbutil</text>
</g>
<!-- cmd/db&#45;backup&#45;&gt;cmd/internal/dbutil -->
<g id="edge6" class="edge">
<title>cmd/db&#45;backup&#45;&gt;cmd/internal/dbutil</title>
<path fill="none" stroke="#666666" d="M125.05,-663.18C134.42,-661.69 144.2,-660.14 153.89,-658.61"/>
<polygon fill="#666666" stroke="#666666" points="154.39,-661.01 160.92,-657.5 153.62,-656.17 154.39,-661.01"/>
</g>
<!-- cmd/db&#45;restore -->
<g id="node9" class="node">
<title>cmd/db&#45;restore</title>
<path fill="#fce4ec" stroke="black" d="M111.5,-636.92C111.5,-636.92 13.5,-636.92 13.5,-636.92 7.5,-636.92 1.5,-630.92 1.5,-624.92 1.5,-624.92 1.5,-612.92 1.5,-612.92 1.5,-606.92 7.5,-600.92 13.5,-600.92 13.5,-600.92 111.5,-600.92 111.5,-600.92 117.5,-600.92 123.5,-606.92 123.5,-612.92 123.5,-612.92 123.5,-624.92 123.5,-624.92 123.5,-630.92 117.5,-636.92 111.5,-636.92"/>
<text text-anchor="middle" x="62.5" y="-615.22" font-family="Inter" font-size="14.00">cmd/db&#45;restore</text>
</g>
<!-- cmd/db&#45;restore&#45;&gt;cmd/internal/dbutil -->
<g id="edge7" class="edge">
<title>cmd/db&#45;restore&#45;&gt;cmd/internal/dbutil</title>
<path fill="none" stroke="#666666" d="M123.61,-628.44C133.43,-630 143.73,-631.63 153.93,-633.24"/>
<polygon fill="#666666" stroke="#666666" points="153.68,-635.68 160.98,-634.36 154.45,-630.84 153.68,-635.68"/>
</g>
<!-- internal/chief -->
<g id="node10" class="node">
<title>internal/chief</title>
<path fill="#e8f4fd" stroke="black" d="M454.5,-411.92C454.5,-411.92 371.5,-411.92 371.5,-411.92 365.5,-411.92 359.5,-405.92 359.5,-399.92 359.5,-399.92 359.5,-387.92 359.5,-387.92 359.5,-381.92 365.5,-375.92 371.5,-375.92 371.5,-375.92 454.5,-375.92 454.5,-375.92 460.5,-375.92 466.5,-381.92 466.5,-387.92 466.5,-387.92 466.5,-399.92 466.5,-399.92 466.5,-405.92 460.5,-411.92 454.5,-411.92"/>
<text text-anchor="middle" x="413" y="-390.22" font-family="Inter" font-size="14.00">internal/chief</text>
</g>
<!-- internal/chief&#45;&gt;internal/config -->
<g id="edge11" class="edge">
<title>internal/chief&#45;&gt;internal/config</title>
<path fill="none" stroke="#666666" d="M466.65,-401.2C482.8,-403.4 500.63,-405.8 517,-407.92 571.52,-415.01 633.5,-422.66 678.74,-428.17"/>
<polygon fill="#666666" stroke="#666666" points="678.61,-430.62 685.85,-429.03 679.2,-425.76 678.61,-430.62"/>
</g>
<!-- internal/chief&#45;&gt;internal/graph -->
<g id="edge13" class="edge">
<title>internal/chief&#45;&gt;internal/graph</title>
<path fill="none" stroke="#666666" d="M466.74,-390.44C514.73,-386.82 587.42,-380.23 650,-369.92 711.97,-359.72 781.71,-343.24 830.8,-330.79"/>
<polygon fill="#666666" stroke="#666666" points="831.41,-333.17 837.59,-329.06 830.2,-328.42 831.41,-333.17"/>
</g>
<!-- internal/chief&#45;&gt;internal/store -->
<g id="edge15" class="edge">
<title>internal/chief&#45;&gt;internal/store</title>
<path fill="none" stroke="#666666" d="M466.9,-388.47C516.96,-381.44 592.76,-365.79 650,-331.92 681.87,-313.07 709.81,-280.19 726.54,-257.76"/>
<polygon fill="#666666" stroke="#666666" points="728.58,-259.11 730.75,-252.02 724.63,-256.22 728.58,-259.11"/>
</g>
<!-- internal/chief&#45;&gt;internal/dispatch -->
<g id="edge12" class="edge">
<title>internal/chief&#45;&gt;internal/dispatch</title>
<path fill="none" stroke="#666666" d="M433,-375.88C463.72,-346.71 524.26,-289.23 558.11,-257.08"/>
<polygon fill="#666666" stroke="#666666" points="559.92,-258.74 563.31,-252.15 556.55,-255.19 559.92,-258.74"/>
</g>
<!-- internal/portfolio -->
<g id="node12" class="node">
<title>internal/portfolio</title>
<path fill="#e8f4fd" stroke="black" d="M637,-495.92C637,-495.92 530,-495.92 530,-495.92 524,-495.92 518,-489.92 518,-483.92 518,-483.92 518,-471.92 518,-471.92 518,-465.92 524,-459.92 530,-459.92 530,-459.92 637,-459.92 637,-459.92 643,-459.92 649,-465.92 649,-471.92 649,-471.92 649,-483.92 649,-483.92 649,-489.92 643,-495.92 637,-495.92"/>
<text text-anchor="middle" x="583.5" y="-474.22" font-family="Inter" font-size="14.00">internal/portfolio</text>
</g>
<!-- internal/chief&#45;&gt;internal/portfolio -->
<g id="edge14" class="edge">
<title>internal/chief&#45;&gt;internal/portfolio</title>
<path fill="none" stroke="#666666" d="M449.69,-412.09C469.49,-422.13 494.57,-434.79 517,-445.92 524.03,-449.41 531.5,-453.09 538.78,-456.66"/>
<polygon fill="#666666" stroke="#666666" points="538.03,-459.02 545.39,-459.9 540.18,-454.62 538.03,-459.02"/>
</g>
<!-- internal/dispatch&#45;&gt;internal/config -->
<g id="edge16" class="edge">
<title>internal/dispatch&#45;&gt;internal/config</title>
<path fill="none" stroke="#666666" d="M630.9,-252.06C637.77,-255.98 644.42,-260.59 650,-265.92 693.8,-307.74 721.98,-374.8 734.86,-410.93"/>
<polygon fill="#666666" stroke="#666666" points="732.61,-411.92 737.23,-417.72 737.24,-410.31 732.61,-411.92"/>
</g>
<!-- internal/dispatch&#45;&gt;internal/store -->
<g id="edge17" class="edge">
<title>internal/dispatch&#45;&gt;internal/store</title>
<path fill="none" stroke="#666666" d="M650.34,-233.92C660.98,-233.92 671.96,-233.92 682.47,-233.92"/>
<polygon fill="#666666" stroke="#666666" points="682.66,-236.37 689.66,-233.92 682.66,-231.47 682.66,-236.37"/>
</g>
<!-- internal/portfolio&#45;&gt;internal/config -->
<g id="edge22" class="edge">
<title>internal/portfolio&#45;&gt;internal/config</title>
<path fill="none" stroke="#666666" d="M649.43,-460.72C659.13,-458.15 669.12,-455.5 678.81,-452.93"/>
<polygon fill="#666666" stroke="#666666" points="679.66,-455.24 685.79,-451.08 678.4,-450.51 679.66,-455.24"/>
</g>
<!-- internal/portfolio&#45;&gt;internal/graph -->
<g id="edge23" class="edge">
<title>internal/portfolio&#45;&gt;internal/graph</title>
<path fill="none" stroke="#666666" d="M649.06,-488.23C694.94,-492.21 756.28,-490.46 802,-462.92 848.51,-434.91 875.11,-373.63 886.96,-339.02"/>
<polygon fill="#666666" stroke="#666666" points="889.39,-339.48 889.27,-332.06 884.74,-337.93 889.39,-339.48"/>
</g>
<!-- internal/cost -->
<g id="node13" class="node">
<title>internal/cost</title>
<path fill="#e8f4fd" stroke="black" d="M101.5,-744.92C101.5,-744.92 23.5,-744.92 23.5,-744.92 17.5,-744.92 11.5,-738.92 11.5,-732.92 11.5,-732.92 11.5,-720.92 11.5,-720.92 11.5,-714.92 17.5,-708.92 23.5,-708.92 23.5,-708.92 101.5,-708.92 101.5,-708.92 107.5,-708.92 113.5,-714.92 113.5,-720.92 113.5,-720.92 113.5,-732.92 113.5,-732.92 113.5,-738.92 107.5,-744.92 101.5,-744.92"/>
<text text-anchor="middle" x="62.5" y="-723.22" font-family="Inter" font-size="14.00">internal/cost</text>
</g>
<!-- internal/matrix -->
<g id="node15" class="node">
<title>internal/matrix</title>
<path fill="#e8f4fd" stroke="black" d="M460.5,-56.92C460.5,-56.92 365.5,-56.92 365.5,-56.92 359.5,-56.92 353.5,-50.92 353.5,-44.92 353.5,-44.92 353.5,-32.92 353.5,-32.92 353.5,-26.92 359.5,-20.92 365.5,-20.92 365.5,-20.92 460.5,-20.92 460.5,-20.92 466.5,-20.92 472.5,-26.92 472.5,-32.92 472.5,-32.92 472.5,-44.92 472.5,-44.92 472.5,-50.92 466.5,-56.92 460.5,-56.92"/>
<text text-anchor="middle" x="413" y="-35.22" font-family="Inter" font-size="14.00">internal/matrix</text>
</g>
<!-- internal/matrix&#45;&gt;internal/config -->
<g id="edge18" class="edge">
<title>internal/matrix&#45;&gt;internal/config</title>
<path fill="none" stroke="#666666" d="M472.65,-40.88C534.19,-44.19 625.35,-53.09 650,-76.92 709.9,-134.85 665.06,-180.27 686,-260.92 700.09,-315.21 721.66,-377.32 733.82,-411"/>
<polygon fill="#666666" stroke="#666666" points="731.58,-412 736.27,-417.75 736.18,-410.33 731.58,-412"/>
</g>
<!-- internal/matrix&#45;&gt;internal/graph -->
<g id="edge20" class="edge">
<title>internal/matrix&#45;&gt;internal/graph</title>
<path fill="none" stroke="#666666" d="M461.22,-20.79C510.33,-4.88 588.5,12.02 650,-13.92 776.67,-67.36 857.05,-227.03 884.21,-288.97"/>
<polygon fill="#666666" stroke="#666666" points="882.09,-290.24 887.12,-295.69 886.59,-288.29 882.09,-290.24"/>
</g>
<!-- internal/matrix&#45;&gt;internal/store -->
<g id="edge21" class="edge">
<title>internal/matrix&#45;&gt;internal/store</title>
<path fill="none" stroke="#666666" d="M472.71,-24.22C523.66,-14.95 597.33,-10.28 650,-43.92 708.22,-81.11 731.1,-166.24 739.13,-208.77"/>
<polygon fill="#666666" stroke="#666666" points="736.73,-209.26 740.38,-215.71 741.55,-208.39 736.73,-209.26"/>
</g>
<!-- internal/matrix&#45;&gt;internal/dispatch -->
<g id="edge19" class="edge">
<title>internal/matrix&#45;&gt;internal/dispatch</title>
<path fill="none" stroke="#666666" d="M429.85,-57.27C460.54,-92.78 528.03,-170.88 562.05,-210.25"/>
<polygon fill="#666666" stroke="#666666" points="560.38,-212.07 566.81,-215.77 564.09,-208.87 560.38,-212.07"/>
</g>
<!-- internal/team -->
<g id="node16" class="node">
<title>internal/team</title>
<path fill="#e8f4fd" stroke="black" d="M105,-798.92C105,-798.92 20,-798.92 20,-798.92 14,-798.92 8,-792.92 8,-786.92 8,-786.92 8,-774.92 8,-774.92 8,-768.92 14,-762.92 20,-762.92 20,-762.92 105,-762.92 105,-762.92 111,-762.92 117,-768.92 117,-774.92 117,-774.92 117,-786.92 117,-786.92 117,-792.92 111,-798.92 105,-798.92"/>
<text text-anchor="middle" x="62.5" y="-777.22" font-family="Inter" font-size="14.00">internal/team</text>
</g>
</g>
</svg>
